<svg width="269" height="252" viewBox="0 0 269 252" fill="none" xmlns="http://www.w3.org/2000/svg">
<path fill-rule="evenodd" clip-rule="evenodd" d="M91.8113 1.10562C88.1777 1.56812 87.5606 1.75794 88.0607 2.25801C88.6007 2.7976 97.5742 1.87982 97.2601 1.31711C97.0953 1.02179 97.2524 1.05118 97.6089 1.38216C98.0521 1.79359 100.097 1.98726 104.063 1.99305C126.111 2.02677 152.519 12.3362 169.961 27.7191C172.54 29.9936 174.828 31.8542 175.047 31.8542C175.265 31.8542 176.841 33.4744 178.548 35.4544C180.255 37.435 181.869 39.0668 182.134 39.0807C182.399 39.0952 183.158 39.9913 183.82 41.0729C184.483 42.1539 186.163 44.2275 187.554 45.68C188.945 47.1326 190.083 48.4488 190.083 48.6053C190.083 48.9363 194.014 55.103 194.453 55.4609C194.615 55.5934 195.674 57.4902 196.806 59.6764C198.143 62.2606 199.145 63.651 199.672 63.651C200.195 63.651 201.156 64.9663 202.389 67.3679L204.298 71.0848L207.175 71.2495C210.76 71.4548 211.318 71.8411 208.028 71.8411C206.681 71.8411 205.286 71.9539 204.927 72.0912C204.491 72.2588 203.658 71.1031 202.41 68.5984C201.384 66.5397 200.462 65.0896 200.36 65.3758C200.111 66.0763 203.077 72.3581 203.757 72.5705C204.919 72.9333 210.291 73.0856 209.731 72.7396C209.404 72.5373 210.932 72.3836 213.129 72.3981C215.325 72.4125 217.25 72.2964 217.407 72.1398C217.563 71.9833 216.806 69.8466 215.725 67.3915C214.156 63.8298 213.533 62.8918 212.64 62.7477C211.571 62.5752 211.564 62.5492 212.486 62.1469C213.24 61.8179 213.135 61.7731 212.004 61.9408C211.209 62.0588 208.716 62.2862 206.464 62.4466C204.211 62.607 201.783 62.8499 201.066 62.9867C199.862 63.217 199.636 62.9819 198.055 59.8422C197.115 57.9758 196.346 56.3676 196.346 56.2684C196.346 56.1691 199.186 55.962 202.657 55.8073C206.127 55.6532 209.076 55.4181 209.209 55.2851C209.342 55.1521 209.295 54.7913 209.105 54.4834C208.86 54.0879 206.705 53.9713 201.736 54.0855L194.714 54.2473L192.885 51.3611C191.88 49.7741 191.055 48.3129 191.052 48.1139C191.049 47.915 192.239 47.7526 193.697 47.7526C195.154 47.7526 196.346 47.5517 196.346 47.3055C196.346 47.0521 197.492 46.9769 198.996 47.1321C200.953 47.3339 201.646 47.2467 201.646 46.7972C201.646 46.3179 201.795 46.3131 202.352 46.7756C203.354 47.6066 204.116 47.2048 203.395 46.2263C202.869 45.5133 202.022 45.4589 195.91 45.7446L189.018 46.0664L186.62 43.0149C185.301 41.3364 184.294 39.8959 184.383 39.813C184.471 39.7306 187.361 39.4401 190.806 39.1679L197.069 38.6727L190.083 38.7902C185.857 38.8615 183.859 38.7628 185.025 38.5402C186.085 38.3383 189.109 38.1601 191.745 38.1451C194.382 38.1297 196.333 37.9356 196.081 37.713C195.829 37.4909 192.589 37.4437 188.879 37.6079C185.169 37.7722 182.13 37.8999 182.125 37.8912C182.121 37.883 181.091 36.7475 179.837 35.3677C178.583 33.9879 177.557 32.666 177.557 32.4304C177.557 32.0753 180.436 31.7771 189.246 31.2197C190.466 31.1426 190.223 30.8179 186.47 27.5086L183.098 24.5351L176.353 24.788C171.935 24.9538 170.439 24.9012 172.017 24.6358C173.342 24.4127 176.119 24.2114 178.188 24.1882C180.747 24.1593 181.847 23.9796 181.629 23.6265C181.407 23.2676 179.157 23.2131 174.355 23.4511L167.403 23.7956L163.982 21.4412L160.562 19.0872L163.158 18.7736C164.586 18.6011 167.796 18.4383 170.291 18.4123C172.786 18.3863 174.68 18.2172 174.499 18.0365C174.319 17.8563 170.976 17.7624 167.071 17.8289L159.971 17.9488L156.479 16.2231C154.559 15.274 152.987 14.4459 152.987 14.3832C152.987 14.2271 161.725 14.309 162.622 14.4738C163.057 14.5533 162.865 14.7605 162.141 14.9922C161.02 15.3511 161.009 15.3815 161.992 15.4258C162.572 15.4523 163.181 15.2572 163.345 14.9922C163.741 14.3509 167.009 14.3885 167.922 15.0452C168.536 15.4865 168.52 15.525 167.817 15.2996C167.362 15.1536 166.871 15.2263 166.726 15.4609C166.581 15.6956 167.111 15.8054 167.905 15.7047C168.767 15.5958 169.641 15.817 170.08 16.2554C170.483 16.6582 170.813 16.8379 170.813 16.6538C170.813 16.4698 171.138 16.5893 171.535 16.9193C171.933 17.2493 172.258 17.3254 172.258 17.0893C172.258 16.1706 158.207 8.42371 157.422 8.90886C157.234 9.02496 154.18 9.2408 150.635 9.3887C144.309 9.65175 144.122 9.63008 140.399 8.19441C135.966 6.4846 135.419 5.56394 139.097 5.99946C141.499 6.2837 148.868 5.89491 148.478 5.50467C148.373 5.39917 146.472 4.85235 144.253 4.28916C140.985 3.45955 138.621 3.25095 131.789 3.18928C123.418 3.11413 119.479 2.72388 118.983 1.92125C118.841 1.69097 117.966 1.5026 117.038 1.5026C116.111 1.5026 115.473 1.30699 115.621 1.06755C115.981 0.485093 96.4411 0.515932 91.8113 1.10562ZM118.54 0.907621C118.805 1.17067 121.841 1.48526 125.285 1.60666C132.123 1.84755 130.579 1.3099 122.876 0.767903C119.685 0.543398 118.221 0.590616 118.54 0.907621ZM79.5169 3.39981C76.6022 4.1427 73.2419 5.11733 72.0495 5.5649C70.8571 6.01294 69.1704 6.59492 68.3013 6.85796C65.7971 7.61723 60.632 10.0319 60.274 10.6105C59.7518 11.4565 60.6431 11.2358 64.1668 9.64886C68.9228 7.50595 68.9541 7.49439 73.9766 5.91226C76.4938 5.11974 80.559 4.082 83.0098 3.60601C85.4605 3.1305 87.4662 2.57117 87.4662 2.36305C87.4662 1.68905 84.9301 2.02002 79.5169 3.39981ZM130.344 4.558C131.536 4.91162 133.236 5.57741 134.122 6.03702C135.008 6.49711 135.857 6.74861 136.009 6.59685C136.161 6.44461 136.02 6.32031 135.695 6.32031C135.371 6.32031 135.239 6.10351 135.402 5.83854C135.566 5.57356 136.609 5.33123 137.719 5.29991C142.322 5.16983 142.58 4.50643 138.052 4.44621C135.535 4.41249 132.283 4.27904 130.826 4.14993L128.176 3.91482L130.344 4.558ZM89.3205 6.07701C65.3138 9.51637 45.0313 20.8067 28.8423 39.7427C22.6863 46.9432 19.1 52.4123 14.5135 61.5939C11.0857 68.4562 9.27233 73.3631 7.25516 81.2357C4.46763 92.1155 3.94587 96.6721 3.86397 110.853C3.8235 117.868 3.95744 123.179 4.16219 122.656C4.47004 121.868 4.54087 121.953 4.57507 123.15C4.59771 123.945 5.04721 126.966 5.57378 129.864C10.5813 157.412 23.7847 181.105 45.6138 201.713C59.4016 214.73 80.5657 224.913 100.233 227.995C105.923 228.886 119.858 228.77 126.318 227.778C141.861 225.39 158.897 218.309 169.367 209.885C179.388 201.821 190.179 188.193 196.545 175.56C200.114 168.475 202.293 162.888 204.488 155.188C206.252 149.003 207.477 142.657 206.488 144.829C206.247 145.359 206.031 146.443 206.008 147.238C205.977 148.325 205.856 148.508 205.518 147.974C205.143 147.38 205.015 147.419 204.73 148.215C204.543 148.738 204.054 149.556 203.644 150.033C203.219 150.526 202.93 151.669 202.973 152.683C203.032 154.085 202.957 154.259 202.621 153.501C202.26 152.684 202.19 152.773 202.161 154.089C202.137 155.225 201.944 155.569 201.441 155.375C200.963 155.192 200.706 155.527 200.598 156.474C200.493 157.388 200.194 157.798 199.691 157.717C199.092 157.621 198.941 158.103 198.941 160.095C198.941 161.601 198.712 162.669 198.366 162.785C198.05 162.89 197.792 163.825 197.792 164.863C197.792 165.901 197.601 166.75 197.368 166.75C196.687 166.75 195.749 169.483 196.077 170.514C196.275 171.139 195.965 171.947 195.157 172.907C193.857 174.453 193.569 175.224 194.511 174.642C194.827 174.447 194.595 175.081 193.996 176.051C193.396 177.02 193.028 178.01 193.177 178.251C193.662 179.037 191.565 183.114 190.823 182.829C190.43 182.678 190.264 182.23 190.43 181.765C190.587 181.324 190.23 181.562 189.636 182.295C189.042 183.028 188.346 184.388 188.089 185.318C187.833 186.248 187.417 186.882 187.167 186.728C186.916 186.572 186.711 186.667 186.711 186.937C186.711 187.207 186.249 187.858 185.686 188.384C185.012 189.012 184.773 189.633 184.988 190.195C185.169 190.665 185.163 190.896 184.974 190.708C184.409 190.143 183.375 191.329 183.673 192.199C183.885 192.818 183.758 192.782 183.127 192.043C182.674 191.513 182.441 191.35 182.608 191.681C183.069 192.59 181.789 194.068 180.62 193.978C179.813 193.915 179.614 194.137 179.708 194.995C179.774 195.598 179.697 196.077 179.536 196.058C178.62 195.951 178.477 196.232 179.064 196.981C179.661 197.742 179.645 197.761 178.896 197.174C178.199 196.628 177.961 196.629 177.412 197.179C177.051 197.539 176.847 198.102 176.957 198.431C177.087 198.822 176.873 198.921 176.337 198.715C175.674 198.461 175.581 198.597 175.848 199.438C176.033 200.019 175.969 200.474 175.703 200.474C175.442 200.474 175.138 200.203 175.028 199.873C174.906 199.504 174.158 199.981 173.101 201.102C171.985 202.285 171.3 202.711 171.164 202.306C171.048 201.961 171.029 202.146 171.121 202.717C171.256 203.548 171.099 203.705 170.334 203.505C169.808 203.367 169.497 203.063 169.642 202.828C169.787 202.593 169.374 202.401 168.725 202.401C168.075 202.401 167.418 202.726 167.266 203.124C167.085 203.596 166.334 203.846 165.098 203.846C163.862 203.846 163.111 204.096 162.93 204.569C162.778 204.966 162.344 205.292 161.966 205.292C161.589 205.292 161.155 205.617 161.003 206.014C160.85 206.412 160.394 206.737 159.988 206.737C159.582 206.737 159.25 206.954 159.25 207.219C159.25 207.484 158.477 207.701 157.532 207.701C155.424 207.701 153.526 208.586 154.432 209.146C155.555 209.84 152.899 210.795 150.217 210.661C148.194 210.561 147.688 210.686 147.688 211.286C147.688 211.708 147.278 212.036 146.752 212.036C145.278 212.036 145.102 211.133 146.456 210.516C147.133 210.207 147.688 209.773 147.688 209.55C147.688 209.328 148.033 209.146 148.455 209.146C148.877 209.146 149.773 208.712 150.447 208.182C151.121 207.652 152.038 207.219 152.486 207.219C153.506 207.219 155.533 205.121 155.039 204.576C154.838 204.355 154.929 204.32 155.242 204.5C155.555 204.679 155.947 204.605 156.114 204.336C156.28 204.067 156.819 203.846 157.311 203.846C157.803 203.846 158.29 203.594 158.393 203.286C158.496 202.978 158.992 202.666 159.496 202.591C160.954 202.377 162.622 201.332 162.622 200.633C162.622 200.281 162.913 199.992 163.268 199.992C164.185 199.992 167.402 197.463 167.423 196.725C167.432 196.386 167.82 195.968 168.283 195.797C169.273 195.433 172.258 192.414 172.258 191.777C172.258 191.536 172.8 191.203 173.462 191.037C174.705 190.724 175.132 189.888 174.064 189.858C173.733 189.849 173.931 189.578 174.504 189.256C175.865 188.492 179.484 185.13 179.484 184.63C179.484 184.004 181.234 182.167 181.829 182.167C182.129 182.167 182.375 181.95 182.375 181.685C182.375 181.42 182.165 181.203 181.908 181.203C181.652 181.203 181.583 180.835 181.756 180.385C181.964 179.843 182.138 179.768 182.27 180.163C182.422 180.621 182.627 180.63 183.144 180.201C183.516 179.892 183.82 179.427 183.82 179.166C183.82 178.906 184.362 178.048 185.025 177.261C185.687 176.474 186.229 175.521 186.229 175.144C186.229 174.767 186.501 174.458 186.834 174.458C187.466 174.458 188.522 172.457 188.886 170.57C189.002 169.965 189.265 169.346 189.471 169.194C189.676 169.042 190.169 168.288 190.566 167.517C190.963 166.747 191.672 166.016 192.141 165.892C192.839 165.709 192.885 165.538 192.398 164.95C191.91 164.362 191.986 164.081 192.818 163.407C193.528 162.832 193.766 162.216 193.604 161.37C193.467 160.651 193.673 159.857 194.11 159.42C194.515 159.015 195.198 157.084 195.627 155.129C196.056 153.174 196.707 150.49 197.074 149.165C198.104 145.441 198.518 139.45 198.472 128.931C198.429 119.021 198.248 115.968 197.742 116.551C197.582 116.736 197.192 121.223 196.877 126.522C196.301 136.199 195.333 143.387 195.613 135.917C195.687 133.929 195.659 133.062 195.55 133.99C195.442 134.917 195.024 137.48 194.623 139.684C194.222 141.888 194.023 144.099 194.181 144.597C194.52 145.664 192.284 154.164 191.468 154.912C191.047 155.298 190.995 155.185 191.262 154.465C192.003 152.469 192.962 149.148 192.933 148.684C192.916 148.419 192.379 149.7 191.739 151.531C190.856 154.061 190.707 155.019 191.121 155.518C191.421 155.879 191.515 156.325 191.33 156.51C191.146 156.694 190.832 156.583 190.633 156.261C190.409 155.899 189.929 156.639 189.372 158.202C188.066 161.873 183.164 171.711 181.658 173.686C180.947 174.618 180.509 175.612 180.684 175.895C180.858 176.178 180.801 176.35 180.555 176.277C179.952 176.098 176.496 180.656 176.828 181.193C176.973 181.427 176.838 181.775 176.527 181.967C176.151 182.199 176.093 182.105 176.353 181.685C176.611 181.268 176.554 181.17 176.187 181.398C175.881 181.587 175.63 181.955 175.63 182.215C175.63 182.476 175.406 182.951 175.132 183.271C174.857 183.591 174.098 184.6 173.445 185.512C172.792 186.425 172.258 186.926 172.258 186.624C172.258 186.324 172.474 185.944 172.737 185.781C173.001 185.619 173.453 185.044 173.741 184.505C174.03 183.965 172.754 185.115 170.906 187.061C169.058 189.006 167.509 190.814 167.464 191.079C167.322 191.913 165.393 193.712 164.941 193.432C164.703 193.285 163.596 193.894 162.481 194.786C161.366 195.677 159.19 197.262 157.645 198.307C156.099 199.352 155.081 200.289 155.382 200.389C155.96 200.582 154.556 201.876 153.738 201.904C153.489 201.913 153.705 201.601 154.22 201.212C155.917 199.929 154.662 200.44 149.503 203.134C146.702 204.596 144.294 206.096 144.152 206.466C143.859 207.23 136.563 209.571 130.103 210.975C124.31 212.234 107.424 212.445 100.192 211.35C75.7283 207.645 56.6184 196.033 38.6926 173.982C37.9671 173.09 37.2627 172.47 37.1278 172.605C36.7477 172.985 44.3573 181.995 48.4177 185.971C51.9572 189.438 58.5507 195.114 60.9557 196.765C61.6105 197.215 61.9357 197.581 61.6784 197.578C61.4207 197.576 60.1363 196.722 58.8239 195.683C57.5116 194.643 56.2315 193.92 55.9795 194.076C55.7271 194.232 55.6751 194.109 55.8644 193.804C56.0532 193.498 56.0133 193.247 55.7753 193.247C55.3089 193.247 52.427 190.937 50.2123 188.788C49.4593 188.057 48.6113 187.603 48.3276 187.778C48.0443 187.953 47.9393 187.891 48.0954 187.639C48.251 187.387 47.2547 186.071 45.8811 184.715C44.5076 183.36 41.9836 180.614 40.2724 178.616C38.5606 176.617 37.0739 175.068 36.9679 175.174C36.6745 175.467 38.8087 178.312 39.3218 178.312C39.569 178.312 39.7708 178.538 39.7708 178.815C39.7708 179.091 40.1967 179.774 40.7175 180.333C41.2383 180.892 41.5303 181.566 41.366 181.832C41.1969 182.106 41.3086 182.166 41.6232 181.972C41.9706 181.757 42.1797 181.978 42.1797 182.561C42.1797 183.645 43.2911 184.732 43.8664 184.21C44.0832 184.014 44.1198 184.244 43.9483 184.721C43.7681 185.222 43.8307 185.469 44.0957 185.305C44.3486 185.149 45.051 185.777 45.6562 186.7C46.2613 187.624 47.1901 188.5 47.7201 188.646C48.5371 188.871 48.5738 188.984 47.9609 189.386C47.3953 189.757 47.3819 189.862 47.8973 189.868C48.7655 189.877 51.8353 192.585 51.4336 192.987C51.262 193.158 51.5304 193.141 52.0295 192.95C52.6606 192.708 52.8307 192.773 52.5884 193.166C52.3966 193.476 52.4515 193.729 52.7102 193.729C52.9685 193.729 53.271 193.567 53.3823 193.368C53.4931 193.169 53.5191 193.275 53.4392 193.604C53.3597 193.932 53.8405 194.747 54.5077 195.414C55.1774 196.084 55.5681 196.875 55.3797 197.18C55.1629 197.531 55.2525 197.6 55.6254 197.37C55.953 197.167 56.6082 197.366 57.1103 197.82C57.6084 198.271 58.4004 198.514 58.8865 198.364C59.3813 198.212 60.2899 198.504 60.9688 199.033C61.6312 199.548 61.9149 199.976 61.5994 199.982C61.2838 199.987 60.8917 199.775 60.7279 199.51C60.5641 199.245 60.2264 199.029 59.9768 199.029C59.7272 199.029 59.5234 199.245 59.5234 199.51C59.5234 199.775 59.8486 199.992 60.2461 199.992C60.6436 199.992 60.9688 200.234 60.9688 200.53C60.9688 200.845 61.4712 200.972 62.1794 200.837C63.0982 200.661 63.3593 200.792 63.2634 201.383C63.1835 201.872 63.5376 202.217 64.2164 202.313C64.8104 202.398 65.6231 202.934 66.023 203.504C66.4224 204.075 67.2376 204.548 67.834 204.556C68.5759 204.565 68.8761 204.824 68.7845 205.376C68.7113 205.82 69.1319 206.519 69.7192 206.931C71.1438 207.928 70.8104 208.135 67.6114 208.24C65.4107 208.312 64.9612 208.464 65.1905 209.062C65.3996 209.606 65.2541 209.711 64.6264 209.471C64.161 209.292 63.5814 209.146 63.3381 209.146C63.0948 209.146 62.8958 208.821 62.8958 208.423C62.8958 208.026 62.5836 207.701 62.2016 207.701C61.1499 207.701 60.8069 206.79 61.5295 205.915C62.1101 205.212 61.9675 205.163 60.0707 205.416C58.2665 205.657 57.9331 205.564 57.7245 204.766C57.5906 204.254 56.9108 203.696 56.2142 203.524C55.517 203.353 54.4046 202.878 53.7422 202.47L52.5378 201.727L53.7422 203.093C54.8406 204.339 54.8556 204.411 53.9147 203.922C53.3471 203.628 52.3638 202.77 51.7298 202.016C51.0953 201.263 50.3134 200.734 49.9916 200.841C49.6698 200.948 49.4063 200.693 49.4063 200.273C49.4063 199.853 49.1225 199.51 48.7756 199.51C48.4287 199.51 47.7244 199.19 47.2099 198.797C46.4005 198.179 46.3721 198.018 46.9974 197.6C47.5654 197.22 47.4267 197.115 46.3499 197.109C45.3888 197.104 44.9051 196.814 44.7283 196.138C44.5895 195.608 44.2619 195.174 43.9998 195.174C43.7377 195.174 42.8792 194.632 42.092 193.97C41.3048 193.308 40.3519 192.766 39.9746 192.766C39.5974 192.766 39.2891 192.556 39.2891 192.299C39.2891 192.042 39.6037 191.953 39.9886 192.101C40.3735 192.248 40.9676 192.197 41.3087 191.986C41.7466 191.715 41.5765 191.513 40.7296 191.298C40.0695 191.131 39.5911 190.722 39.6653 190.39C39.74 190.057 39.5232 189.882 39.1836 190C38.8444 190.119 38.6334 190.588 38.7158 191.042C38.8844 191.976 36.7848 189.748 33.2086 185.197C29.9018 180.988 27.9491 178.133 28.0889 177.71C28.1549 177.511 27.9838 177.349 27.7097 177.349C27.3893 177.349 27.4173 176.962 27.7887 176.265C28.2955 175.313 28.2758 175.255 27.6283 175.789C27.028 176.284 26.7784 176.262 26.2861 175.669C25.8375 175.128 25.8284 174.94 26.2509 174.94C26.5636 174.94 26.6835 174.72 26.5173 174.451C26.3506 174.181 26.0355 174.071 25.8168 174.207C25.3461 174.497 24.637 173.054 24.7921 172.122C24.8518 171.764 24.6673 171.615 24.3831 171.791C24.0984 171.967 23.7202 171.718 23.5429 171.237C23.3656 170.756 22.6742 169.496 22.007 168.436C20.8565 166.608 18.0666 161.075 16.1771 156.874C12.585 148.886 8.72552 135.559 7.17856 125.799C6.08301 118.89 5.94715 101.335 6.93767 94.7253C8.69758 82.9811 11.9004 72.6895 17.1334 61.9648C23.7149 48.4767 31.8736 38.108 43.8659 27.9899C65.7007 9.56841 96.7851 2.70462 125.611 9.94034C138.854 13.2641 152.147 19.6562 163.56 28.1893C169.738 32.8071 179.025 41.8827 183.572 47.7434C187.034 52.2056 187.675 52.9263 187.675 52.3612C187.675 51.8491 181.327 44.1764 177.154 39.6439C161.615 22.7675 140.364 10.8986 118.299 6.77318C111.177 5.44156 96.259 5.08312 89.3205 6.07701ZM148.651 11.8361L151.783 13.5001L158.527 13.504C164.862 13.5079 165.189 13.4635 163.907 12.7688C163.157 12.3617 162.224 12.1512 161.835 12.3005C161.445 12.4499 161.246 12.3805 161.39 12.1464C161.535 11.9122 161.318 11.5923 160.908 11.4348C160.487 11.2729 160.29 11.3534 160.454 11.6198C160.619 11.8867 160.422 11.9662 159.998 11.8038C159.586 11.6458 159.25 11.3775 159.25 11.2069C159.25 10.7907 158.096 10.6741 151.301 10.4028L145.52 10.1716L148.651 11.8361ZM55.8943 12.5294C50.0215 15.7225 43.1456 20.4545 43.6481 20.9575C43.8591 21.168 48.3016 18.315 50.8906 16.306C51.3092 15.9808 53.2604 14.8717 55.2265 13.8417C59.0147 11.8563 59.838 11.2922 59.4753 10.9294C59.3519 10.8056 57.7404 11.5258 55.8943 12.5294ZM164.429 15.3111C164.761 15.445 165.303 15.445 165.633 15.3111C165.965 15.1777 165.694 15.0683 165.031 15.0683C164.369 15.0683 164.098 15.1777 164.429 15.3111ZM91.0794 21.0774C83.7676 22.1658 75.022 24.5206 69.1343 26.9863C51.9543 34.1821 35.5794 49.4268 27.3055 65.9288C24.7063 71.1122 24.7637 71.7371 27.384 66.7825C34.2647 53.7733 47.1877 40.1772 59.7643 32.7165C82.633 19.1499 112.132 18.0986 138.574 29.9083C159.08 39.0668 175.189 54.4829 186.015 75.3089C189.858 82.7036 190.067 82.3963 186.337 74.8339C173.144 48.0874 148.731 29.017 119.216 22.4033C114.42 21.328 112.378 21.1521 103.124 21.0172C97.2943 20.9319 91.8744 20.9589 91.0794 21.0774ZM39.53 23.6954C36.2399 26.4631 25.7995 37.1064 25.7995 37.6927C25.7995 37.9057 25.4044 38.4674 24.9217 38.9415C20.0587 43.7168 11.238 59.1619 7.51821 69.4154C5.82334 74.0872 2.53669 87.2328 1.74177 92.5197C0.966602 97.6732 0.0382341 110.798 0.421724 111.182C1.02346 111.783 1.11499 111.132 1.41899 104.12C1.89835 93.0665 4.59916 78.8788 7.83907 70.3958C10.181 64.2634 11.5314 60.9931 11.9582 60.4212C12.1962 60.1023 13.141 58.3679 14.0573 56.5671C17.1873 50.4173 18.744 47.9911 23.4229 41.9714C28.2946 35.703 36.6133 27.0008 40.7459 23.8491C42.9587 22.1614 43.6761 21.2489 42.7819 21.2595C42.5834 21.262 41.1198 22.358 39.53 23.6954ZM90.5582 23.9117C76.9689 25.8465 62.5572 32.0387 52.0661 40.4499C46.8967 44.5946 39.2953 52.5804 35.5939 57.7551C32.5722 61.9793 26.5231 73.2127 24.1176 79.0677C20.6609 87.4794 18.5816 97.0397 18.1446 106.529C17.3165 124.522 20.328 138.506 28.5889 155.024C30.198 158.242 31.3668 161.039 31.1862 161.24C31.006 161.44 31.1659 161.426 31.5422 161.208C32.0562 160.909 32.1473 161.016 31.9088 161.637C31.6954 162.194 31.7739 162.351 32.1497 162.119C32.526 161.887 32.6045 162.044 32.3906 162.601C32.2162 163.056 32.2345 163.328 32.4311 163.207C32.6281 163.085 33.5468 164.07 34.4733 165.397C37.9921 170.434 43.8095 177.538 46.9083 180.582C55.0179 188.549 66.8338 197.119 75.5274 201.342C96.5032 211.53 119.144 213.325 139.497 206.415C150.733 202.601 159.404 196.998 169.155 187.251C181.05 175.361 188.053 163.079 192.484 146.34C194.355 139.27 194.867 135.783 195.398 126.529C196.266 111.393 194.145 97.824 188.808 84.3672C186.714 79.0899 181.596 69.0878 180.159 67.4671C179.788 67.049 179.484 66.4708 179.484 66.1827C179.484 65.8942 179.306 65.5863 179.087 65.4977C178.869 65.4095 177.595 63.7498 176.257 61.8097C172.328 56.1128 170.205 53.7174 163.797 47.7526C159.277 43.5434 156.955 41.728 151.542 38.1682C141.84 31.7882 129.246 26.6607 118.187 24.5886C111.073 23.2555 97.5005 22.9231 90.5582 23.9117ZM91.4904 25.8234C72.156 28.7877 57.9977 38.3205 45.6836 56.6654C35.9383 71.1835 29.8006 87.5758 28.2753 103.156C27.0232 115.949 27.1875 122.997 28.9373 131.546C30.1349 137.398 33.5945 148.541 34.5494 149.623C34.7715 149.875 34.9531 150.403 34.9531 150.796C34.9531 151.189 35.4142 152.501 35.9783 153.71C39.2698 160.774 41.4599 165.005 42.5878 166.476C43.2907 167.394 44.6247 169.235 45.5521 170.568C46.4795 171.901 47.5095 172.996 47.8405 173.002C48.3878 173.012 48.6489 173.635 48.4996 174.579C48.4682 174.778 48.7679 174.94 49.1654 174.94C49.5628 174.94 49.888 175.178 49.888 175.47C49.888 176.284 52.8138 178.829 53.3611 178.491C53.6666 178.302 53.7171 178.596 53.4979 179.286C53.1988 180.23 53.2908 180.344 54.17 180.114C54.7303 179.967 55.0777 180.028 54.9413 180.248C54.805 180.468 55.347 181.364 56.1453 182.238C56.9431 183.112 57.5964 184.011 57.5964 184.235C57.5964 184.46 58.0839 184.605 58.6803 184.557C60.5193 184.408 60.8941 184.544 61.188 185.47C61.3845 186.09 61.8061 186.301 62.5586 186.157C63.2451 186.026 63.9784 186.318 64.5498 186.949C65.047 187.498 65.7205 187.948 66.0457 187.948C66.3713 187.948 66.751 188.382 66.8897 188.911C67.1007 189.719 67.5469 189.875 69.6469 189.875C71.5942 189.875 72.0948 190.025 71.8944 190.548C71.7243 190.991 72.0765 191.31 72.9268 191.48C77.4988 192.399 79.2577 192.882 80.9849 193.692C82.0573 194.195 84.2951 194.873 85.9582 195.201C87.6213 195.528 89.3027 196.116 89.6948 196.508C90.2383 197.052 92.1774 197.281 97.8498 197.472C101.943 197.609 105.292 197.908 105.292 198.134C105.292 198.361 107.026 198.547 109.146 198.547C111.689 198.547 113 198.362 113 198.003C113 197.607 115.589 197.54 122.515 197.76C127.748 197.925 132.247 198.048 132.512 198.034C136.571 197.812 139.787 197.413 139.979 197.108C140.448 196.362 146.432 193.729 147.659 193.729C148.472 193.729 149.07 193.364 149.38 192.679C149.654 192.075 150.674 191.365 151.783 191.007C154.907 189.997 155.396 189.782 155.396 189.41C155.396 189.216 156.25 188.672 157.295 188.202C158.339 187.731 159.308 187.047 159.448 186.683C159.587 186.319 160.033 186.021 160.44 186.021C160.845 186.021 161.177 185.696 161.177 185.298C161.177 184.901 161.565 184.576 162.039 184.576C162.996 184.576 168.885 179.299 168.885 178.44C168.885 178.141 169.335 177.753 169.885 177.578C170.435 177.404 170.759 177.134 170.603 176.979C170.272 176.647 172.229 174.458 172.858 174.458C173.65 174.458 176.438 170.869 177.444 168.554C177.762 167.823 178.188 167.253 178.391 167.286C179.349 167.441 179.655 167.172 179.003 166.75C178.36 166.335 178.36 166.282 179.003 166.274C180.23 166.257 182.964 163.358 182.701 162.352C182.571 161.856 182.662 161.451 182.902 161.451C183.142 161.451 183.339 161.125 183.339 160.728C183.339 160.33 183.122 160.005 182.857 160.005C182.592 160.005 182.382 159.626 182.39 159.162C182.402 158.51 182.629 158.619 183.396 159.646C183.94 160.376 184.586 160.85 184.83 160.699C185.073 160.549 184.946 160.099 184.547 159.699C183.593 158.746 183.619 157.295 184.596 156.92C185.16 156.704 185.294 156.828 185.084 157.375C184.886 157.892 184.982 158.011 185.391 157.755C186.353 157.155 187.192 157.157 187.2 157.759C187.204 158.076 187.41 158.005 187.675 157.596C188.313 156.608 188.269 155.732 187.625 156.633C187.206 157.22 187.151 157.162 187.333 156.325C187.456 155.758 187.37 154.999 187.141 154.639C186.913 154.278 186.723 154.208 186.718 154.483C186.714 154.758 186.061 155.032 185.266 155.093C183.861 155.2 183.327 154.585 184.302 153.983C184.567 153.819 184.784 153.192 184.784 152.59C184.784 151.937 185.076 151.494 185.507 151.494C185.943 151.494 186.229 151.94 186.229 152.618C186.229 153.236 186.446 153.742 186.711 153.742C186.976 153.742 187.193 153.543 187.193 153.3C187.193 153.057 187.321 152.46 187.479 151.975C187.698 151.301 187.653 151.25 187.291 151.758C186.912 152.29 186.746 152.202 186.468 151.327C186.101 150.168 186.783 149.499 188.999 148.845C189.883 148.585 190.089 148.718 190.114 149.568C190.144 150.582 190.157 150.579 190.596 149.482C190.846 148.861 190.938 148.175 190.804 147.958C190.669 147.74 190.766 147.489 191.018 147.4C191.271 147.311 192.049 144.528 192.747 141.216C194.961 130.712 194.927 114.207 192.664 101.952C188.07 77.0606 172.864 53.9173 151.885 39.8848C146.096 36.0123 136.031 30.9831 130.576 29.2367C121.203 26.2362 116.809 25.5386 106.014 25.3368C98.8846 25.2033 94.5959 25.3469 91.4904 25.8234ZM171.294 27.7153C172.805 29.3359 174.667 30.7408 174.667 30.2605C174.667 30.1598 173.528 29.1394 172.137 27.9923C169.624 25.9197 169.619 25.9178 171.294 27.7153ZM183.459 30.7538C184.188 30.8641 185.38 30.8641 186.109 30.7538C186.838 30.6435 186.241 30.5534 184.784 30.5534C183.327 30.5534 182.73 30.6435 183.459 30.7538ZM177.687 31.2245C178.156 31.3469 178.806 31.3387 179.132 31.2067C179.458 31.0747 179.075 30.9749 178.28 30.9846C177.485 30.9942 177.218 31.1021 177.687 31.2245ZM188.402 54.1973C188.858 54.8924 189.322 55.4609 189.433 55.4609C189.782 55.4609 188.66 53.6042 188.104 53.2607C187.813 53.0805 187.947 53.5021 188.402 54.1973ZM201.056 54.8505C202.189 54.9527 203.924 54.9512 204.91 54.8476C205.897 54.7441 204.97 54.6607 202.85 54.6626C200.73 54.6641 199.923 54.7489 201.056 54.8505ZM196.226 55.2981C196.557 55.432 197.099 55.432 197.43 55.2981C197.762 55.1646 197.491 55.0553 196.828 55.0553C196.166 55.0553 195.895 55.1646 196.226 55.2981ZM190.182 56.8846C190.505 57.4025 190.837 57.7585 190.92 57.6761C191.205 57.3904 190.46 55.9427 190.028 55.9427C189.789 55.9427 189.858 56.3667 190.182 56.8846ZM115.409 58.3959C105.123 58.8304 100.127 59.674 95.77 61.7129C91.6951 63.6197 89.2285 65.6268 86.6428 69.1389C83.9049 72.8582 82.3522 76.286 80.8355 81.9583C79.7111 86.1647 79.608 87.3927 79.5646 97.1341L79.5169 107.733L72.3583 108.055C63.9606 108.434 63.0654 108.607 62.6405 109.947C62.4647 110.501 62.323 114.539 62.3254 118.92C62.3288 125.027 62.4844 127.04 62.9917 127.547C63.4663 128.021 65.8997 128.311 71.5851 128.57L79.5169 128.931L79.6595 140.174C79.8749 157.146 79.4663 158.018 71.0753 158.518C68.1698 158.69 66.0721 159.044 65.6901 159.426C65.0224 160.092 64.4862 172.568 65.0311 174.741C65.2315 175.539 65.8409 176.01 67.1162 176.35C69.2181 176.912 79.0323 177.312 93.9701 177.444C99.7995 177.496 104.027 177.691 103.365 177.877C102.24 178.194 102.262 178.22 103.697 178.264C104.543 178.291 105.364 178.103 105.523 177.847C105.681 177.59 106.486 177.516 107.312 177.681C108.348 177.888 108.712 177.816 108.485 177.449C108.278 177.115 108.79 176.797 109.855 176.597C110.79 176.422 111.555 176.027 111.555 175.719C111.555 175.411 112.298 174.759 113.206 174.27C114.117 173.78 115.143 172.704 115.495 171.872C116.296 169.973 116.318 161.61 115.549 150.852C115.236 146.479 114.843 139.798 114.675 136.003L114.369 129.104L129.944 129.248C148.059 129.417 149.901 129.178 151.595 126.436C152.547 124.896 152.615 124.279 152.402 119.111C151.975 108.762 152.614 109.088 132.03 108.699C123.286 108.534 115.661 108.304 115.086 108.187C114.166 108 114.088 107.788 114.438 106.409C114.655 105.547 114.955 101.222 115.103 96.7974C115.251 92.3723 115.623 87.3098 115.93 85.5475C116.745 80.8676 115.855 81.0579 139.392 80.5265C151.024 80.2635 159.755 79.8646 160.841 79.5461C164.421 78.4954 165.116 75.6471 164.053 66.3687C163.32 59.9689 162.583 58.9634 158.164 58.3241C154.623 57.8125 128.181 57.8563 115.409 58.3959ZM128.658 60.31C99.7711 61.0649 95.3012 61.9986 89.082 68.5742C86.1755 71.6475 83.1341 77.6132 81.6401 83.1719C80.77 86.4094 80.5696 88.7821 80.373 98.1892C80.1567 108.511 80.0671 109.426 79.1937 110.217C78.4175 110.919 77.1225 111.107 71.9527 111.268C66.7076 111.432 65.7234 111.354 66.0548 110.803C66.3925 110.243 66.3289 110.243 65.6381 110.803C64.9356 111.373 64.8229 111.356 64.8229 110.682C64.8229 109.484 63.9143 109.755 63.5891 111.05C63.4306 111.682 63.3723 115.159 63.4595 118.777C63.5853 123.975 63.7702 125.45 64.3411 125.811C64.7386 126.062 68.2671 126.27 72.182 126.274L79.3001 126.281L79.7834 127.552C80.0503 128.255 80.3143 134.448 80.3735 141.403C80.4781 153.72 80.4569 154.031 79.3551 156.268C77.8013 159.423 75.922 160.65 72.2909 160.882C70.0246 161.026 69.2138 160.893 68.7185 160.296C67.9482 159.368 66.9418 159.292 66.6175 160.137C66.433 160.618 66.7611 166.818 67.3426 173.856C67.4259 174.867 68.1953 174.526 68.1953 173.478C68.1953 172.658 68.3476 172.579 69.1271 172.996C69.6397 173.27 70.9949 173.52 72.1381 173.552C74.0411 173.604 74.0946 173.638 72.7721 173.951C71.9772 174.138 77.3971 174.24 84.8164 174.176C92.2357 174.111 98.7073 173.9 99.1978 173.706C99.6882 173.513 100.23 173.573 100.402 173.842C100.574 174.11 101.177 174.473 101.743 174.649C102.549 174.901 102.83 174.733 103.044 173.871C103.195 173.266 103.465 162.691 103.644 150.37C103.929 130.828 104.069 127.855 104.742 127.084C105.474 126.246 106.393 126.219 122.696 126.55L139.879 126.899L140.162 122.375C140.318 119.886 140.513 116.387 140.596 114.598L140.748 111.346L129.644 111.31C111.137 111.249 105.721 110.967 104.664 110.01C103.805 109.232 103.761 108.5 103.935 97.8587C104.137 85.5124 104.397 84.2174 107.378 80.6908C110.123 77.4437 110.155 77.4393 132.138 77.1435C147.305 76.9397 152.144 76.7311 152.613 76.2619C153.036 75.8394 153.306 73.2831 153.477 68.0833C153.614 63.9232 153.651 60.4111 153.558 60.2786C153.278 59.8759 144.863 59.8865 128.658 60.31ZM204.536 63.1693C201.9 63.4925 201.897 63.494 204.055 63.5301C205.247 63.5503 207.307 63.3976 208.632 63.1914C210.897 62.8388 210.926 62.8171 209.113 62.8306C208.053 62.8383 205.994 62.9905 204.536 63.1693ZM203.703 65.4302C204.171 65.5526 204.822 65.5444 205.148 65.4124C205.474 65.2804 205.091 65.1807 204.296 65.1903C203.501 65.1999 203.234 65.3078 203.703 65.4302ZM211.89 71.2235C212.623 71.3338 213.707 71.331 214.299 71.2168C214.892 71.1026 214.292 71.012 212.967 71.0154C211.643 71.0192 211.158 71.1127 211.89 71.2235ZM204.835 74.157C204.383 74.8879 206.265 80.7279 207.279 81.7415C207.682 82.1443 208.419 84.3373 208.916 86.6142C209.414 88.8915 210.096 91.085 210.431 91.4892C210.766 91.8929 210.967 92.6541 210.878 93.1807C210.614 94.7416 211.836 100.324 212.497 100.578C212.909 100.735 213.026 101.421 212.858 102.676C212.72 103.702 212.758 105.746 212.943 107.22C213.224 109.474 213.453 109.944 214.382 110.178C215.542 110.469 225.597 109.235 226.091 108.741C226.723 108.11 225.75 107.965 223.751 108.393C222.589 108.641 219.989 108.989 217.973 109.166L214.306 109.489L213.998 107.948C213.459 105.251 213.632 101.39 214.292 101.384C214.624 101.381 217.171 101.084 219.953 100.724C224.104 100.186 224.709 100.011 223.326 99.7487L221.639 99.4288L223.542 99.3657C224.812 99.3233 225.285 99.1417 224.963 98.8198C224.641 98.498 222.605 98.6045 218.843 99.1397C215.742 99.5806 213.082 99.8176 212.93 99.6663C212.543 99.2785 211.524 93.1176 211.802 92.8401C211.927 92.7138 213.976 92.3709 216.353 92.0775C221.91 91.3919 222.715 91.1784 223.05 90.3045C223.288 89.6864 222.798 89.6324 219.592 89.9244C217.539 90.1113 214.819 90.4245 213.55 90.6196C210.913 91.0248 210.813 90.927 209.884 87.0169C209.569 85.6921 209.208 84.2612 209.082 83.8367C208.889 83.1868 209.516 83.0144 213.06 82.7422C219.409 82.2541 220.917 81.9391 220.917 81.1003C220.917 80.4648 220.137 80.407 215.194 80.6725C212.046 80.8421 209.118 81.1157 208.687 81.281C207.826 81.6115 206.784 79.627 205.765 75.7112C205.413 74.3613 205.066 73.7822 204.835 74.157ZM26.0539 77.249C23.3198 83.4774 20.6686 92.6243 21.3007 93.6475C21.4361 93.8658 21.3007 94.3413 21.0001 94.7036C20.6715 95.0991 20.6344 95.4744 20.9071 95.6425C21.1567 95.7967 21.5286 95.3284 21.7343 94.6014C22.1982 92.9596 22.1997 92.9547 22.5909 92.0755C23.2938 90.4948 25.3177 83.7009 25.3177 82.9219C25.3177 82.4656 25.8559 80.3964 26.514 78.3234C27.1716 76.2508 27.636 74.4808 27.5454 74.3902C27.4553 74.2996 26.7842 75.5864 26.0539 77.249ZM189.617 83.1628C189.617 83.4277 189.827 83.9697 190.083 84.3672C190.34 84.7646 190.55 84.873 190.55 84.6081C190.55 84.3431 190.34 83.8011 190.083 83.4036C189.827 83.0062 189.617 82.8978 189.617 83.1628ZM23.7303 96.6523C23.5342 97.7122 23.276 100.747 23.157 103.397L22.9402 108.215L23.6542 102.434C24.3662 96.6707 24.4149 92.9576 23.7303 96.6523ZM20.3116 98.4147C19.2016 107.32 18.9689 111.029 19.2614 115.14C19.642 120.485 21.2573 128.855 21.9535 129.091C22.2141 129.18 22.4271 129.759 22.4271 130.378C22.4271 131.578 24.597 138.027 26.2764 141.818C27.32 144.175 28.045 145.007 27.2636 142.952C27.0222 142.317 26.8228 141.179 26.8204 140.423C26.8155 138.713 25.4324 133.872 25.3269 135.194L25.2498 136.158L24.8677 135.194C24.6538 134.655 24.6871 134.1 24.9434 133.936C25.2296 133.751 25.2088 132.849 24.888 131.527C24.4076 129.544 24.3879 129.525 24.5753 131.219C24.8292 133.511 24.5397 133.534 23.9148 131.271C23.5963 130.118 23.5925 129.213 23.9032 128.632C24.2795 127.929 24.2265 127.806 23.6426 128.03C23.0577 128.254 22.9089 127.904 22.9089 126.304C22.9089 125.201 23.0958 124.413 23.3246 124.554C23.553 124.695 23.448 123.57 23.091 122.053C22.734 120.537 22.4387 118.093 22.4348 116.622C22.4305 115.151 22.1669 113.688 21.849 113.37C21.3995 112.92 21.4014 112.792 21.8581 112.792C22.5133 112.792 22.1082 110.347 21.373 109.862C21.1398 109.709 21.0574 109.275 21.1899 108.899C21.3224 108.523 21.2434 107.456 21.0145 106.529C20.6826 105.182 20.5887 105.734 20.5491 109.268C20.5222 111.701 20.7394 114.303 21.0328 115.049C21.6948 116.735 22.072 125.813 21.438 124.811C21.1952 124.427 20.9827 123.138 20.9659 121.945C20.949 120.753 20.6455 117.609 20.2909 114.96C19.7552 110.95 19.7537 109.013 20.2846 103.408C20.6354 99.7034 20.8435 96.5945 20.7472 96.4982C20.6508 96.4018 20.4552 97.2642 20.3116 98.4147ZM210.589 101.229C210.788 102.687 210.963 104.242 210.978 104.687C210.994 105.131 211.185 105.383 211.404 105.248C211.623 105.113 211.696 104.641 211.566 104.2C211.436 103.758 211.192 102.422 211.024 101.229C210.855 100.037 210.607 98.9528 210.472 98.8203C210.337 98.6878 210.39 99.7718 210.589 101.229ZM219.863 100.113C220.21 100.252 220.626 100.235 220.786 100.075C220.946 99.9149 220.662 99.8012 220.154 99.8219C219.593 99.845 219.479 99.9592 219.863 100.113ZM194.977 102.193C194.977 102.855 195.087 103.126 195.22 102.795C195.354 102.464 195.354 101.922 195.22 101.59C195.087 101.26 194.977 101.53 194.977 102.193ZM195.477 105.324C195.486 106.119 195.594 106.386 195.717 105.917C195.839 105.449 195.831 104.798 195.699 104.472C195.567 104.146 195.467 104.529 195.477 105.324ZM211.533 107.492C211.974 109.393 212.313 119.168 211.984 120.493C211.702 121.633 211.662 121.645 211.161 120.751C210.872 120.234 210.478 119.152 210.285 118.348C210.084 117.51 209.913 119.97 209.884 124.113C209.722 147.142 203.335 168.498 191.176 186.664C189.196 189.622 187.032 192.622 186.368 193.329C185.614 194.131 185.3 194.856 185.531 195.256C185.735 195.609 185.724 195.736 185.507 195.54C185.058 195.133 183.82 196.011 183.82 196.738C183.82 197.003 184.2 196.922 184.663 196.558C185.427 195.96 185.444 195.977 184.85 196.735C184.489 197.196 184.028 197.471 183.826 197.346C183.625 197.222 181.938 198.795 180.077 200.844C178.217 202.893 175.491 205.545 174.018 206.737C171.218 209.005 170.793 209.628 172.045 209.628C172.458 209.628 172.663 209.411 172.499 209.146C172.335 208.881 172.418 208.664 172.683 208.664C173.527 208.664 173.717 209.498 173.006 210.088C172.513 210.497 172.053 210.516 171.376 210.153C170.446 209.656 169.451 210.213 169.448 211.233C169.448 211.454 169.286 211.78 169.089 211.956C168.892 212.133 168.887 212.007 169.078 211.675C169.268 211.344 169.29 211.073 169.126 211.073C168.564 211.073 164.309 214.545 164.41 214.921C164.466 215.127 164.141 215.267 163.688 215.232C163.234 215.197 162.923 215.455 162.996 215.806C163.069 216.157 162.928 216.32 162.684 216.17C162.44 216.019 160.421 216.863 158.196 218.047C143.93 225.636 128.514 229.471 112.277 229.468C96.8713 229.466 82.9611 225.818 67.3354 217.682C65.4049 216.677 63.6108 215.987 63.3487 216.149C63.0866 216.311 62.9315 216.232 63.0042 215.973C63.077 215.713 61.5107 214.394 59.5234 213.041C50.4999 206.899 45.6051 202.877 39.7564 196.797C27.584 184.144 18.0613 169.717 12.1302 154.947C9.9444 149.503 7.15302 140.572 6.27813 136.221C6.12492 135.461 5.9115 134.928 5.80358 135.036C5.60943 135.23 6.70594 140.943 7.29177 142.789C7.5158 143.495 7.42378 143.657 6.94152 143.409C6.58212 143.223 6.62645 143.359 7.04029 143.71C7.79185 144.347 9.4636 149.537 9.65101 151.815C9.86829 154.457 9.88659 154.511 10.3255 153.818C10.6251 153.345 10.7986 153.503 10.9711 154.406C11.1011 155.085 11.0216 155.526 10.7952 155.386C10.1333 154.976 10.3197 155.886 11.1064 156.902C11.8199 157.823 11.8262 157.823 11.5429 156.874C11.3314 156.165 11.3791 156.084 11.7236 156.566C11.9813 156.926 12.0892 157.613 11.964 158.092C11.8387 158.571 11.9886 159.36 12.2969 159.845C12.7941 160.628 12.8297 160.591 12.6081 159.523C12.3667 158.362 12.3836 158.353 13.0706 159.273C13.8506 160.318 13.813 161.512 12.9902 161.786C12.7021 161.882 11.8681 160.491 11.1368 158.694C9.46071 154.577 8.81561 153.221 8.62387 153.413C8.28422 153.753 11.7376 162.133 13.5235 165.305C13.8969 165.967 14.7501 167.67 15.4197 169.089C17.9832 174.52 24.0136 183.851 29.1719 190.368C33.1855 195.44 43.6568 206.255 44.5529 206.255C44.8689 206.255 44.9725 206.005 44.7837 205.699C44.5751 205.362 44.6507 205.273 44.9749 205.474C45.2693 205.655 45.3994 206.092 45.264 206.445C45.1233 206.811 46.0088 207.911 47.3327 209.014C50.4348 211.599 58.6201 217.336 59.2055 217.336C59.4627 217.336 60.4239 217.909 61.3416 218.608C64.8133 221.257 76.4028 226.971 78.301 226.971C78.7312 226.971 79.2895 227.17 79.541 227.412C80.1057 227.956 89.5561 231.039 93.4883 231.962L96.3789 232.641L93.2474 232.676C89.5204 232.718 84.881 233.545 84.656 234.208C84.5673 234.467 84.0253 234.694 83.4516 234.71C82.4451 234.739 82.4422 234.754 83.3711 235.125C84.9393 235.752 94.4697 236.986 109.628 238.527C141.991 241.816 145.006 242 172.017 242.323C186.061 242.491 197.613 242.497 197.689 242.336C197.765 242.174 198.67 242.196 199.702 242.385C200.734 242.574 201.839 242.567 202.158 242.369C202.734 242.013 202.148 241.834 198.148 241.146C197.151 240.974 196.217 240.641 196.072 240.407C195.927 240.171 195.075 239.979 194.178 239.979C193.282 239.979 192.415 239.762 192.251 239.497C192.088 239.232 191.139 239.016 190.144 239.016C189.148 239.016 187.155 238.805 185.716 238.548C184.276 238.291 179.954 237.747 176.112 237.339C172.27 236.93 167.5 236.379 165.513 236.113C156.266 234.877 142.943 233.742 136.484 233.641C132.574 233.579 129.539 233.392 129.739 233.225C129.939 233.058 131.837 232.539 133.957 232.072C141.276 230.457 147.603 228.444 156.903 224.768C166.082 221.14 173.034 217.952 172.636 217.553C172.524 217.442 171.589 217.781 170.557 218.307C169.526 218.833 168.402 219.263 168.061 219.263C167.72 219.263 167.44 219.516 167.44 219.825C167.44 220.134 167.306 220.253 167.141 220.088C166.977 219.924 165.546 220.444 163.961 221.244C162.376 222.044 160.993 222.612 160.888 222.506C160.56 222.179 172.855 216.473 175.148 215.888C176.341 215.583 178.184 214.759 179.244 214.057C182.017 212.217 188.536 207.291 188.834 206.811C188.972 206.586 187.088 207.206 184.647 208.187C178.448 210.679 177.655 210.912 178.393 210.023C178.715 209.634 181.82 208.251 185.291 206.95L191.602 204.584L196.065 199.986C202.819 193.024 209.867 183.278 214.078 175.073C219.804 163.919 224.06 150.586 225.926 137.957L226.23 135.903L224.175 136.207C223.046 136.375 220.644 136.811 218.838 137.178C214.017 138.155 214.269 138.306 214.51 134.592C214.626 132.803 214.797 131.095 214.891 130.795C214.984 130.496 217.681 129.768 220.883 129.178C226.206 128.197 227.73 127.635 227.013 126.917C226.868 126.772 224.732 127.007 222.267 127.438C219.802 127.87 217.081 128.338 216.219 128.479L214.654 128.734V124.823C214.654 120.051 215.182 119.267 218.085 119.731C219.357 119.934 219.919 119.871 219.719 119.548C219.544 119.264 219.904 119.055 220.567 119.055C222.648 119.055 227.163 117.972 226.895 117.537C226.749 117.303 226.484 117.203 226.303 117.314C226.123 117.425 223.807 117.766 221.158 118.072C218.508 118.377 215.96 118.738 215.497 118.874C214.743 119.094 214.654 118.707 214.654 115.233C214.654 112.963 214.453 111.346 214.172 111.346C213.531 111.346 213.539 119.386 214.18 119.782C214.449 119.949 214.567 120.251 214.441 120.454C214.316 120.657 214.195 122.864 214.171 125.359C214.056 137.773 211.648 151.573 207.538 163.378C204.436 172.286 194.469 191.005 192.022 192.518C191.311 192.957 191.443 192.197 192.267 191.108C192.656 190.593 192.957 189.835 192.936 189.422C192.915 189.008 192.68 189.267 192.414 189.995C191.947 191.273 191.047 191.828 191.047 190.839C191.047 190.574 191.239 190.357 191.472 190.357C191.706 190.357 192.013 189.917 192.154 189.379C192.294 188.842 192.59 188.434 192.812 188.473C193.706 188.63 194.419 188.404 194.419 187.963C194.419 187.707 194.04 187.632 193.576 187.799C193.113 187.965 192.876 187.942 193.05 187.747C193.225 187.553 193.767 187.337 194.255 187.266C194.743 187.196 195.467 186.507 195.865 185.737C196.262 184.965 196.75 184.262 196.949 184.174C197.148 184.086 197.31 183.706 197.31 183.331C197.31 182.956 197.541 182.648 197.824 182.648C198.121 182.648 198.207 182.237 198.029 181.673C197.816 181.003 197.919 180.739 198.358 180.83C198.744 180.91 198.936 180.61 198.843 180.071C198.76 179.581 198.885 179.3 199.123 179.447C199.361 179.594 199.85 178.965 200.209 178.05C200.568 177.135 201.032 176.385 201.239 176.385C201.446 176.385 201.491 176.06 201.338 175.663C201.176 175.24 201.333 174.937 201.715 174.933C202.219 174.927 202.203 174.819 201.646 174.458C201.154 174.14 201.118 173.989 201.532 173.984C202.485 173.972 206.229 165.198 205.78 164.028C205.632 163.643 205.709 163.45 205.95 163.599C206.888 164.179 209.801 154.615 211.3 146.034C212.943 136.631 213.431 127.648 212.847 117.609C212.561 112.707 212.086 108.155 211.791 107.492L211.254 106.288L211.533 107.492ZM196.237 115.201C196.338 119.838 196.495 123.848 196.586 124.113C196.915 125.069 196.748 111.053 196.405 108.938C196.211 107.745 196.136 110.563 196.237 115.201ZM69.0548 110.738C70.4543 110.836 72.6223 110.835 73.8725 110.736C75.1222 110.637 73.9766 110.558 71.3268 110.559C68.6771 110.56 67.6548 110.641 69.0548 110.738ZM209.392 113.073C209.415 113.634 209.53 113.748 209.683 113.364C209.822 113.016 209.805 112.6 209.645 112.44C209.485 112.281 209.372 112.565 209.392 113.073ZM211.121 112.631C210.701 113.051 210.795 117.99 211.252 119.536C211.465 120.256 211.591 119.045 211.565 116.529C211.541 114.213 211.504 112.316 211.482 112.314C211.46 112.312 211.297 112.454 211.121 112.631ZM0.901569 117.609C0.901569 119.332 0.989251 120.037 1.09572 119.175C1.20268 118.314 1.20268 116.905 1.09572 116.044C0.989251 115.182 0.901569 115.887 0.901569 117.609ZM1.27156 122.949C1.29469 124.12 1.49414 126.161 1.71528 127.486C2.01108 129.26 2.04818 128.752 1.85595 125.559C1.5823 121.011 1.19882 119.3 1.27156 122.949ZM21.5016 127.044C21.5247 127.605 21.6389 127.719 21.7926 127.335C21.9318 126.988 21.9145 126.572 21.7545 126.412C21.5946 126.252 21.4809 126.536 21.5016 127.044ZM196.009 128.69C196.009 130.147 196.099 130.744 196.21 130.015C196.32 129.286 196.32 128.094 196.21 127.365C196.099 126.636 196.009 127.233 196.009 128.69ZM4.15785 127.526C4.18098 128.087 4.29516 128.201 4.44884 127.817C4.58808 127.469 4.57073 127.054 4.41079 126.894C4.25084 126.734 4.13714 127.018 4.15785 127.526ZM4.67769 130.135C4.67769 130.798 4.78705 131.069 4.9205 130.738C5.05443 130.407 5.05443 129.865 4.9205 129.533C4.78705 129.202 4.67769 129.473 4.67769 130.135ZM5.17729 133.267C5.18692 134.062 5.29483 134.329 5.4172 133.86C5.53957 133.391 5.53139 132.741 5.39938 132.415C5.26738 132.089 5.16765 132.472 5.17729 133.267ZM24.8359 136.823C24.8359 137.088 25.0527 137.439 25.3177 137.603C25.5827 137.767 25.7995 137.684 25.7995 137.419C25.7995 137.154 25.5827 136.803 25.3177 136.639C25.0527 136.476 24.8359 136.558 24.8359 136.823ZM3.71415 137.844C3.71415 138.506 3.82351 138.777 3.95696 138.446C4.09089 138.115 4.09089 137.573 3.95696 137.242C3.82351 136.911 3.71415 137.181 3.71415 137.844ZM207.242 140.067C207.065 141.569 207.017 142.894 207.134 143.011C207.252 143.128 207.5 142.004 207.686 140.512C207.873 139.02 207.921 137.695 207.794 137.568C207.667 137.441 207.418 138.565 207.242 140.067ZM25.7995 139.289C25.7995 139.819 25.996 140.253 26.236 140.253C26.4764 140.253 26.5592 139.819 26.421 139.289C26.2822 138.759 26.0857 138.326 25.984 138.326C25.8828 138.326 25.7995 138.759 25.7995 139.289ZM193.512 145.151C193.481 145.594 193.331 146.352 193.178 146.837C192.916 147.674 192.93 147.675 193.452 146.862C193.754 146.39 193.904 145.631 193.785 145.176C193.589 144.43 193.562 144.427 193.512 145.151ZM7.53362 150.611C7.58373 151.523 8.38636 153.06 8.4143 152.297C8.42923 151.899 8.23075 151.249 7.97396 150.852C7.71718 150.454 7.51869 150.346 7.53362 150.611ZM188.476 152.698C188.565 153.05 188.641 153.592 188.645 153.902C188.65 154.225 188.852 154.157 189.12 153.742C189.377 153.345 189.587 152.694 189.587 152.297C189.587 151.705 189.512 151.693 189.171 152.231C188.942 152.592 188.655 152.701 188.534 152.472C188.414 152.243 188.387 152.345 188.476 152.698ZM186.395 155.931C186.238 156.34 186.218 156.782 186.349 156.914C186.481 157.045 186.704 156.71 186.845 156.17C187.146 155.022 186.812 154.845 186.395 155.931ZM201.946 156.892C201.482 158.104 201.618 158.416 202.186 157.44C202.468 156.956 202.596 156.459 202.472 156.335C202.348 156.211 202.111 156.462 201.946 156.892ZM189.214 159.854C187.794 163.748 187.905 164.321 189.388 160.749C190.043 159.171 190.51 157.672 190.425 157.417C190.34 157.163 189.795 158.259 189.214 159.854ZM13.7552 161.904C13.7552 162.153 13.9696 162.49 14.2317 162.652C14.5044 162.82 14.5853 162.627 14.421 162.198C14.1006 161.364 13.7552 161.211 13.7552 161.904ZM183.339 162.173C183.339 162.571 183.555 162.896 183.82 162.896C184.085 162.896 184.302 162.571 184.302 162.173C184.302 161.776 184.085 161.451 183.82 161.451C183.555 161.451 183.339 161.776 183.339 162.173ZM185.005 161.965C184.83 162.247 184.791 162.582 184.917 162.708C185.043 162.834 185.275 162.603 185.432 162.194C185.758 161.345 185.48 161.196 185.005 161.965ZM14.237 163.56C14.237 163.659 14.6161 164.039 15.0801 164.403C15.8442 165.002 15.861 164.985 15.2622 164.221C14.6325 163.418 14.237 163.163 14.237 163.56ZM183.157 164.119C182.693 165.33 182.829 165.643 183.397 164.666C183.679 164.183 183.807 163.685 183.683 163.562C183.559 163.437 183.322 163.688 183.157 164.119ZM184.121 164.601C183.656 165.812 183.793 166.125 184.361 165.148C184.642 164.664 184.771 164.167 184.647 164.043C184.523 163.919 184.286 164.17 184.121 164.601ZM186.77 165.126C185.944 166.939 186.49 167.13 187.41 165.35C187.834 164.53 187.993 163.859 187.764 163.859C187.535 163.859 187.088 164.429 186.77 165.126ZM198.574 164.601C198.409 165.031 198.287 165.637 198.304 165.946C198.321 166.256 198.542 165.99 198.796 165.355C199.05 164.72 199.171 164.115 199.066 164.01C198.96 163.904 198.739 164.17 198.574 164.601ZM15.4722 167.373C15.6534 167.848 15.9227 168.115 16.0711 167.967C16.2195 167.819 16.0716 167.43 15.742 167.103C15.266 166.631 15.2111 166.686 15.4722 167.373ZM185.121 168.773C184.654 169.587 184.371 170.352 184.492 170.473C184.614 170.595 185.07 170.003 185.507 169.159C186.538 167.163 186.225 166.85 185.121 168.773ZM32.5443 168.505C32.5443 168.763 32.8815 169.395 33.2934 169.91C34.0002 170.792 34.0098 170.776 33.4693 169.641C32.7669 168.166 32.5443 167.893 32.5443 168.505ZM34.2613 168.818C34.4424 169.293 34.7118 169.561 34.8601 169.412C35.0085 169.264 34.8606 168.876 34.5311 168.548C34.0551 168.076 34.0002 168.132 34.2613 168.818ZM193.326 169.95C193.188 170.177 193.378 170.643 193.747 170.984C194.492 171.673 194.635 171.208 193.991 170.191C193.763 169.832 193.463 169.723 193.326 169.95ZM35.8993 171.007C36.2168 171.626 36.6085 172 36.7699 171.838C36.9318 171.677 36.6721 171.171 36.1932 170.713C35.3607 169.918 35.3477 169.931 35.8993 171.007ZM194.939 171.367C194.962 171.928 195.076 172.042 195.23 171.658C195.369 171.31 195.352 170.895 195.192 170.735C195.032 170.575 194.918 170.859 194.939 171.367ZM35.4349 173.495C35.4349 173.76 35.6647 173.977 35.9451 173.977C36.2255 173.977 36.3006 174.227 36.1118 174.533C35.8935 174.885 35.9798 174.958 36.3474 174.731C36.7911 174.456 36.7949 174.213 36.3628 173.693C35.697 172.891 35.4349 172.834 35.4349 173.495ZM188.775 174.088C188.899 174.424 189.243 174.645 189.541 174.579C189.84 174.512 190.087 174.946 190.091 175.542C190.097 176.419 190.187 176.488 190.565 175.904C191.248 174.847 191.176 174.672 189.799 174.044C188.808 173.593 188.598 173.602 188.775 174.088ZM195.003 175.919C194.14 177.301 194.294 177.743 195.191 176.462C195.616 175.855 195.879 175.275 195.775 175.172C195.672 175.068 195.325 175.405 195.003 175.919ZM68.587 175.751C68.9343 175.89 69.3501 175.873 69.5101 175.713C69.67 175.553 69.3858 175.439 68.878 175.46C68.3167 175.483 68.2025 175.597 68.587 175.751ZM36.3984 177.262C36.3984 177.844 37.3124 178.523 37.6467 178.189C37.7676 178.067 37.5364 177.694 37.1327 177.359C36.675 176.978 36.3984 176.942 36.3984 177.262ZM29.6537 178.976C29.6537 179.341 30.0328 179.938 30.4967 180.301C31.256 180.897 31.2758 180.881 30.6962 180.14C30.3421 179.688 30.1923 179.092 30.3633 178.815C30.5343 178.539 30.4442 178.312 30.1638 178.312C29.8835 178.312 29.6537 178.611 29.6537 178.976ZM190.384 179.054C190.219 179.484 190.097 180.09 190.114 180.4C190.131 180.709 190.352 180.443 190.606 179.808C190.86 179.173 190.981 178.568 190.876 178.463C190.77 178.357 190.549 178.623 190.384 179.054ZM191.645 179.269C191.316 179.796 191.066 180.825 191.088 181.558L191.13 182.889L191.504 181.657C191.709 180.979 192.132 179.949 192.443 179.369C193.148 178.051 192.459 177.966 191.645 179.269ZM31.099 179.248C31.099 179.497 31.3133 179.833 31.5754 179.995C31.8481 180.164 31.9291 179.971 31.7648 179.542C31.4444 178.708 31.099 178.555 31.099 179.248ZM31.0994 181.457C31.0994 181.729 31.7494 182.664 32.5443 183.534C33.3392 184.404 33.9896 185.271 33.9896 185.459C33.9896 185.647 34.9979 186.88 36.2308 188.199C37.4636 189.518 38.3308 190.201 38.1579 189.715C37.9849 189.23 37.8438 188.633 37.8438 188.39C37.8438 188.147 37.5186 187.948 37.1211 187.948C36.7236 187.948 36.3984 187.708 36.3984 187.415C36.3984 187.121 36.7077 187 37.0859 187.145C37.4641 187.29 37.9955 187.141 38.2668 186.814C38.6449 186.359 38.3915 186.263 37.1808 186.404C35.9099 186.553 35.446 186.35 34.8014 185.367C34.361 184.694 34.1298 183.808 34.2873 183.396C34.6332 182.495 35.2644 182.424 35.5977 183.251C35.7427 183.611 35.856 183.513 35.8786 183.01C35.9278 181.92 34.6588 181.918 34.0493 183.006C33.6263 183.762 33.4572 183.703 32.34 182.404C31.6578 181.611 31.0999 181.185 31.0994 181.457ZM57.7067 182.739C57.9466 183.459 59.0417 183.855 59.0417 183.222C59.0417 182.963 58.6982 182.62 58.2785 182.459C57.8098 182.279 57.5891 182.386 57.7067 182.739ZM34.9604 184.427C34.9647 184.641 35.1781 185.142 35.4349 185.539C35.8372 186.162 35.9027 186.149 35.9094 185.447C35.9133 184.999 35.6999 184.498 35.4349 184.335C35.1699 184.171 34.9565 184.212 34.9604 184.427ZM192.989 185.028C192.657 185.649 192.651 186.062 192.973 186.261C193.519 186.598 193.494 186.638 193.656 185.178C193.804 183.849 193.64 183.812 192.989 185.028ZM169.698 188.818C168.986 189.56 168.41 190.374 168.419 190.624C168.427 190.875 168.762 190.646 169.162 190.116C169.563 189.586 170.044 189.206 170.231 189.273C170.418 189.339 170.572 189.169 170.572 188.894C170.572 188.619 170.897 188.189 171.294 187.938C171.692 187.686 171.787 187.478 171.505 187.473C171.223 187.47 170.41 188.074 169.698 188.818ZM186.749 188.229C186.772 188.79 186.886 188.904 187.04 188.52C187.179 188.172 187.162 187.757 187.002 187.597C186.842 187.437 186.728 187.721 186.749 188.229ZM38.6329 188.671C38.7856 189.068 39.0973 189.393 39.3257 189.393C39.5536 189.393 39.6157 189.068 39.4635 188.671C39.3107 188.273 38.999 187.948 38.7707 187.948C38.5428 187.948 38.4807 188.273 38.6329 188.671ZM189.882 191.255C189.697 191.556 189.775 191.802 190.055 191.802C190.335 191.802 190.565 192.452 190.565 193.247C190.565 194.042 190.355 194.693 190.098 194.693C189.842 194.693 189.765 194.346 189.927 193.922C190.186 193.248 190.094 193.232 189.19 193.798C188.512 194.221 188.198 194.849 188.277 195.625C188.357 196.417 188.066 196.977 187.395 197.32C186.837 197.605 186.489 198.15 186.612 198.551C186.783 199.111 186.698 199.144 186.225 198.7C185.422 197.944 185.976 196.553 186.934 196.92C187.341 197.077 187.675 196.952 187.675 196.643C187.675 196.334 187.476 196.204 187.234 196.353C186.991 196.503 186.714 196.388 186.617 196.096C186.52 195.805 186.132 196.142 185.756 196.845C185.225 197.837 185.196 198.325 185.627 199.016C186.064 199.715 186.04 199.961 185.515 200.163C185.147 200.304 184.763 200.169 184.661 199.863C184.541 199.504 183.99 199.686 183.119 200.371C181.613 201.556 180.568 201.8 181.232 200.813C181.605 200.258 180.816 201.13 179.505 202.72C179.201 203.089 179.262 203.462 179.683 203.812C180.164 204.211 180.608 204.106 181.47 203.388C182.1 202.863 182.389 202.426 182.11 202.417C181.832 202.408 181.317 202.672 180.966 203.003C180.451 203.489 180.368 203.466 180.54 202.883C180.657 202.485 181.442 201.953 182.286 201.699C183.13 201.446 183.82 201.066 183.82 200.856C183.82 200.646 184.037 200.474 184.302 200.474C185.291 200.474 184.739 201.43 183.583 201.721C182.922 201.887 182.493 202.202 182.628 202.421C182.764 202.641 182.342 203.353 181.691 204.005C181.04 204.657 180.639 205.323 180.802 205.484C180.964 205.647 181.85 204.965 182.772 203.97C185.613 200.902 191.53 193.712 191.512 193.35C191.502 193.161 191.208 192.49 190.858 191.857C190.446 191.116 190.101 190.902 189.882 191.255ZM165.726 192.003C165.212 192.379 164.919 192.814 165.075 192.97C165.231 193.126 165.752 192.819 166.233 192.287C167.257 191.156 167.047 191.038 165.726 192.003ZM42.6687 192.645C42.673 192.844 42.8865 193.332 43.1432 193.729C43.5209 194.314 43.6115 194.244 43.6178 193.368C43.6216 192.772 43.4082 192.284 43.1432 192.284C42.8783 192.284 42.6648 192.446 42.6687 192.645ZM41.9036 195.107C42.6793 195.934 43.415 196.509 43.5383 196.386C43.8649 196.059 42.6595 194.723 41.4965 194.122C40.7363 193.73 40.8346 193.968 41.9036 195.107ZM55.202 195.02C55.1832 195.754 56.5355 197.106 57.2692 197.087C57.5819 197.079 57.4648 196.855 57.0096 196.59C56.5543 196.324 55.9646 195.735 55.6992 195.28C55.4337 194.824 55.2101 194.707 55.202 195.02ZM68.6771 194.882C68.6771 194.986 69.0134 195.201 69.4248 195.359C69.8536 195.523 70.0468 195.442 69.8782 195.169C69.5954 194.711 68.6771 194.492 68.6771 194.882ZM188.879 195.174C188.715 195.439 188.811 195.656 189.091 195.656C189.372 195.656 189.602 195.439 189.602 195.174C189.602 194.91 189.506 194.693 189.389 194.693C189.272 194.693 189.043 194.91 188.879 195.174ZM161.573 196.29C161.223 196.638 160.503 197.173 159.973 197.479C159.443 197.786 159.268 198.042 159.584 198.051C160.18 198.066 163.117 195.699 162.536 195.672C162.356 195.663 161.923 195.941 161.573 196.29ZM166.096 196.909C165.754 197.28 165.687 197.583 165.948 197.583C166.448 197.583 167.172 196.667 166.886 196.395C166.794 196.307 166.438 196.538 166.096 196.909ZM72.3496 198.076C73.0039 198.73 75.05 199.114 74.679 198.514C74.521 198.258 74.2049 198.165 73.9766 198.306C73.7482 198.447 73.4254 198.342 73.2587 198.073C73.0925 197.804 72.709 197.583 72.4065 197.583C72.0317 197.583 72.0138 197.74 72.3496 198.076ZM47.9609 198.532C47.9609 198.788 48.2861 198.874 48.6836 198.721C49.0811 198.569 49.4063 198.359 49.4063 198.254C49.4063 198.15 49.0811 198.065 48.6836 198.065C48.2861 198.065 47.9609 198.275 47.9609 198.532ZM113 199.27C113 199.852 113.75 199.992 116.854 199.992C119.959 199.992 120.708 199.852 120.708 199.27C120.708 198.688 119.959 198.547 116.854 198.547C113.75 198.547 113 198.688 113 199.27ZM157.535 199.254C157.021 199.643 156.845 199.969 157.144 199.977C157.442 199.985 157.956 199.667 158.286 199.27C159.048 198.352 158.737 198.346 157.535 199.254ZM75.9036 199.992C76.3011 200.249 76.8431 200.459 77.1081 200.459C77.3731 200.459 77.2647 200.249 76.8672 199.992C76.4697 199.735 75.9277 199.525 75.6628 199.525C75.3978 199.525 75.5062 199.735 75.9036 199.992ZM79.7578 201.919C80.1553 202.176 80.6973 202.386 80.9622 202.386C81.2272 202.386 81.1188 202.176 80.7214 201.919C80.3239 201.662 79.7819 201.452 79.5169 201.452C79.252 201.452 79.3604 201.662 79.7578 201.919ZM172.248 203.135C171.317 204.257 171.981 204.468 172.978 203.367C173.459 202.836 173.628 202.401 173.355 202.401C173.082 202.401 172.584 202.732 172.248 203.135ZM150.096 203.605C149.434 203.989 148.045 204.636 147.011 205.045C145.977 205.452 145.267 205.922 145.434 206.089C145.6 206.256 146.013 206.171 146.351 205.901C146.689 205.631 147.492 205.247 148.136 205.049C149.526 204.622 152.476 202.881 151.783 202.897C151.518 202.904 150.759 203.222 150.096 203.605ZM175.675 206.132C173.339 208.401 173.19 208.663 174.229 208.657C175.048 208.652 175.2 208.53 174.747 208.242C174.242 207.922 174.291 207.763 174.978 207.499C175.459 207.315 175.927 207.385 176.017 207.656C176.214 208.247 178.039 207.226 178.039 206.525C178.039 206.271 177.779 206.323 177.461 206.641C176.549 207.552 176.026 207.315 176.597 206.249C177.004 205.489 177.309 205.382 178.009 205.757C179.321 206.459 180.231 205.247 179.106 204.297C178.362 203.67 178.02 203.853 175.675 206.132ZM177.757 204.876C177.549 205.213 177.617 205.312 177.923 205.122C178.207 204.947 178.548 205.076 178.683 205.409C178.857 205.842 178.938 205.851 178.965 205.441C179.019 204.611 178.167 204.213 177.757 204.876ZM169.488 206.303C168.362 207.101 167.44 207.86 167.44 207.991C167.44 208.122 168.416 207.557 169.608 206.737C170.8 205.917 171.776 205.148 171.776 205.028C171.776 204.696 171.685 204.747 169.488 206.303ZM179.475 206.507C178.966 207.12 178.996 207.191 179.657 206.937C180.092 206.77 180.448 206.44 180.448 206.204C180.448 205.584 180.169 205.671 179.475 206.507ZM140.722 207.054C139.672 207.433 138.697 207.859 138.555 208.001C138.174 208.382 140.953 207.644 142.629 206.918C144.556 206.085 143.131 206.186 140.722 207.054ZM66.2682 209.387C66.2682 209.784 66.6199 210.109 67.0497 210.109C67.6899 210.109 67.7232 209.979 67.2318 209.387C66.9018 208.989 66.5501 208.664 66.4503 208.664C66.3501 208.664 66.2682 208.989 66.2682 209.387ZM176.333 209.66C176.158 209.944 175.758 210.077 175.444 209.956C175.13 209.836 174.873 210.14 174.873 210.633C174.873 211.46 174.967 211.447 176.095 210.458C176.767 209.869 177.407 209.333 177.517 209.266C177.628 209.2 177.478 209.146 177.184 209.146C176.891 209.146 176.508 209.378 176.333 209.66ZM68.8896 210.847C70.0815 211.749 70.6042 211.744 70.6042 210.832C70.6042 210.361 70.1426 210.115 69.2793 210.125C68.0103 210.139 67.9939 210.17 68.8896 210.847ZM127.845 210.92C128.192 211.059 128.608 211.042 128.768 210.882C128.928 210.722 128.644 210.608 128.136 210.629C127.575 210.652 127.46 210.767 127.845 210.92ZM170.201 211.519C170.035 212.152 170.16 212.368 170.596 212.201C170.946 212.067 171.116 211.65 170.972 211.274C170.624 210.369 170.49 210.411 170.201 211.519ZM54.9962 211.474C54.8599 211.695 55.0541 211.876 55.4284 211.876C55.8027 211.876 55.9969 211.695 55.8605 211.474C55.7242 211.254 55.5296 211.073 55.4284 211.073C55.3272 211.073 55.1326 211.254 54.9962 211.474ZM141.145 211.515C140.461 212.194 141.124 212.931 142.388 212.895C143.425 212.865 143.833 212.617 143.833 212.014C143.833 211.415 143.477 211.195 142.59 211.244C141.906 211.283 141.255 211.404 141.145 211.515ZM121.582 212.366C121.929 212.505 122.345 212.487 122.505 212.327C122.665 212.168 122.381 212.054 121.873 212.075C121.312 212.098 121.197 212.212 121.582 212.366ZM171.233 213.843C170.634 214.607 170.651 214.624 171.415 214.025C172.217 213.396 172.472 213 172.076 213C171.976 213 171.596 213.38 171.233 213.843ZM71.9209 214.505C72.248 214.835 72.6368 214.982 72.7847 214.834C72.9331 214.686 72.6657 214.416 72.1906 214.235C71.5041 213.974 71.4487 214.029 71.9209 214.505ZM130.826 214.927C130.826 215.192 131.151 215.409 131.548 215.409C131.946 215.409 132.271 215.192 132.271 214.927C132.271 214.662 131.946 214.445 131.548 214.445C131.151 214.445 130.826 214.662 130.826 214.927ZM205.54 243.525C205.651 243.621 207.042 243.82 208.632 243.968C210.427 244.135 211.066 244.088 210.318 243.842C209.128 243.452 205.152 243.189 205.54 243.525ZM213.25 244.078C214.347 244.64 216.839 245.118 220.843 245.535C229.011 246.385 232.231 246.636 232.538 246.446C232.736 246.325 233.833 246.548 234.977 246.943C236.12 247.338 238.628 247.926 240.549 248.25C242.47 248.574 244.042 248.988 244.042 249.17C244.042 249.352 245.722 249.654 247.775 249.841C249.829 250.028 253.46 250.466 255.845 250.815C258.23 251.164 260.366 251.335 260.592 251.195C260.819 251.056 262.011 250.842 263.242 250.72C264.473 250.598 266.022 250.426 266.685 250.337C267.347 250.248 268.065 250.157 268.279 250.135C268.494 250.114 268.526 249.865 268.351 249.582C268.176 249.299 267.765 249.17 267.437 249.296C267.109 249.421 265.559 249.206 263.993 248.817C260.879 248.044 245.25 246.272 241.389 246.253C240.062 246.247 238.287 246.045 237.445 245.803C236.603 245.561 233.577 245.224 230.721 245.054C227.866 244.884 225.282 244.539 224.979 244.288C224.676 244.037 221.652 243.753 218.258 243.657C213.129 243.512 212.283 243.583 213.25 244.078Z" fill="#2F5EA5"/>
</svg>
